<?xml version="1.0" encoding="UTF-8" standalone="no"?>
<!-- Created with Inkscape (http://www.inkscape.org/) -->

<svg
   xmlns:dc="http://purl.org/dc/elements/1.1/"
   xmlns:cc="http://creativecommons.org/ns#"
   xmlns:rdf="http://www.w3.org/1999/02/22-rdf-syntax-ns#"
   xmlns:svg="http://www.w3.org/2000/svg"
   xmlns="http://www.w3.org/2000/svg"
   xmlns:sodipodi="http://sodipodi.sourceforge.net/DTD/sodipodi-0.dtd"
   xmlns:inkscape="http://www.inkscape.org/namespaces/inkscape"
   width="744.09448"
   height="1052.3622"
   id="svg2"
   version="1.1"
   inkscape:version="0.48.4 r9939"
   sodipodi:docname="Новый документ 1">
  <defs
     id="defs4" />
  <sodipodi:namedview
     id="base"
     pagecolor="#ffffff"
     bordercolor="#666666"
     borderopacity="1.0"
     inkscape:pageopacity="0.0"
     inkscape:pageshadow="2"
     inkscape:zoom="1.4"
     inkscape:cx="77.820323"
     inkscape:cy="422.20981"
     inkscape:document-units="mm"
     inkscape:current-layer="layer1"
     showgrid="true"
     units="mm"
     inkscape:window-width="1920"
     inkscape:window-height="1018"
     inkscape:window-x="-8"
     inkscape:window-y="-8"
     inkscape:window-maximized="1">
    <inkscape:grid
       type="xygrid"
       id="grid2985"
       units="mm"
       empspacing="5"
       visible="true"
       enabled="true"
       snapvisiblegridlinesonly="true"
       spacingx="5mm"
       spacingy="5mm" />
    <inkscape:grid
       type="xygrid"
       id="grid3057"
       units="mm"
       empspacing="5"
       visible="true"
       enabled="true"
       snapvisiblegridlinesonly="false"
       color="#ed00ff"
       opacity="0.1254902"
       spacingx="1mm"
       spacingy="1mm" />
  </sodipodi:namedview>
  <metadata
     id="metadata7">
    <rdf:RDF>
      <cc:Work
         rdf:about="">
        <dc:format>image/svg+xml</dc:format>
        <dc:type
           rdf:resource="http://purl.org/dc/dcmitype/StillImage" />
        <dc:title></dc:title>
      </cc:Work>
    </rdf:RDF>
  </metadata>
  <g
     inkscape:label="Layer 1"
     inkscape:groupmode="layer"
     id="layer1"
     transform="translate(0,-2.5390623e-6)">
    <rect
       style="opacity:0.98999999;fill:#cccccc;fill-opacity:1;stroke:#000000;stroke-width:1.0629921;stroke-miterlimit:4;stroke-opacity:1;stroke-dasharray:none"
       id="rect2989"
       width="425.19684"
       height="283.46454"
       x="177.85715"
       y="591.75476"
       ry="6.1669516e-007" />
    <path
       sodipodi:type="arc"
       style="opacity:0.98999999;fill:#ffffff;fill-opacity:1;stroke:#000000;stroke-width:1.0629921;stroke-miterlimit:4;stroke-opacity:1;stroke-dasharray:none"
       id="path2994"
       sodipodi:cx="203.74016"
       sodipodi:cy="591.73224"
       sodipodi:rx="62.007874"
       sodipodi:ry="70.866142"
       d="m 265.74803,591.73224 a 62.007874,70.866142 0 1 1 -124.01575,0 62.007874,70.866142 0 1 1 124.01575,0 z"
       transform="matrix(0.06634337,0,0,0.0570584,182.54478,575.64751)" />
    <path
       style="fill:none;stroke:#000000;stroke-width:1px;stroke-linecap:butt;stroke-linejoin:miter;stroke-opacity:1"
       d="m 195.86614,591.87287 0,35.43307"
       id="path2996"
       inkscape:connector-curvature="0" />
    <path
       style="fill:none;stroke:#000000;stroke-width:1px;stroke-linecap:butt;stroke-linejoin:miter;stroke-opacity:1"
       d="m 178.14961,609.5894 35.43307,0"
       id="path2998"
       inkscape:connector-curvature="0" />
    <path
       sodipodi:type="arc"
       style="opacity:0.98999999;fill:#ffffff;fill-opacity:1;stroke:#000000;stroke-width:1.0629921;stroke-miterlimit:4;stroke-opacity:1;stroke-dasharray:none"
       id="path2994-1"
       sodipodi:cx="203.74016"
       sodipodi:cy="591.73224"
       sodipodi:rx="62.007874"
       sodipodi:ry="70.866142"
       d="m 265.74803,591.73224 a 62.007874,70.866142 0 1 1 -124.01575,0 62.007874,70.866142 0 1 1 124.01575,0 z"
       transform="matrix(0.06634337,0,0,0.0570584,182.12295,823.43154)" />
    <path
       style="fill:none;stroke:#000000;stroke-width:1px;stroke-linecap:butt;stroke-linejoin:miter;stroke-opacity:1"
       d="m 195.44432,839.65684 0,35.4331"
       id="path2996-7"
       inkscape:connector-curvature="0" />
    <path
       style="fill:none;stroke:#000000;stroke-width:1px;stroke-linecap:butt;stroke-linejoin:miter;stroke-opacity:1"
       d="m 177.72778,857.37344 35.43307,0"
       id="path2998-4"
       inkscape:connector-curvature="0" />
    <path
       sodipodi:type="arc"
       style="opacity:0.98999999;fill:#ffffff;fill-opacity:1;stroke:#000000;stroke-width:1.0629921;stroke-miterlimit:4;stroke-opacity:1;stroke-dasharray:none"
       id="path2994-0"
       sodipodi:cx="203.74016"
       sodipodi:cy="591.73224"
       sodipodi:rx="62.007874"
       sodipodi:ry="70.866142"
       d="m 265.74803,591.73224 a 62.007874,70.866142 0 1 1 -124.01575,0 62.007874,70.866142 0 1 1 124.01575,0 z"
       transform="matrix(0.06634337,0,0,0.0570584,572.21013,823.71274)" />
    <path
       style="fill:none;stroke:#000000;stroke-width:1px;stroke-linecap:butt;stroke-linejoin:miter;stroke-opacity:1"
       d="m 585.5315,839.93814 0,35.433"
       id="path2996-9"
       inkscape:connector-curvature="0" />
    <path
       style="fill:none;stroke:#000000;stroke-width:1px;stroke-linecap:butt;stroke-linejoin:miter;stroke-opacity:1"
       d="m 567.81496,857.65464 35.43307,0"
       id="path2998-48"
       inkscape:connector-curvature="0" />
    <path
       sodipodi:type="arc"
       style="opacity:0.98999999;fill:#ffffff;fill-opacity:1;stroke:#000000;stroke-width:1.0629921;stroke-miterlimit:4;stroke-opacity:1;stroke-dasharray:none"
       id="path2994-8"
       sodipodi:cx="203.74016"
       sodipodi:cy="591.73224"
       sodipodi:rx="62.007874"
       sodipodi:ry="70.866142"
       d="m 265.74803,591.73224 a 62.007874,70.866142 0 1 1 -124.01575,0 62.007874,70.866142 0 1 1 124.01575,0 z"
       transform="matrix(0.06634337,0,0,0.0570584,572.58977,575.74594)" />
    <path
       style="fill:none;stroke:#000000;stroke-width:1px;stroke-linecap:butt;stroke-linejoin:miter;stroke-opacity:1"
       d="m 585.91113,591.9713 0,35.43307"
       id="path2996-2"
       inkscape:connector-curvature="0" />
    <path
       style="fill:none;stroke:#000000;stroke-width:1px;stroke-linecap:butt;stroke-linejoin:miter;stroke-opacity:1"
       d="m 568.19459,609.68783 35.43308,0"
       id="path2998-45"
       inkscape:connector-curvature="0" />
    <path
       sodipodi:type="arc"
       style="opacity:0.98999999;fill:#f9f9f9;fill-opacity:1;stroke:#000000;stroke-width:1.0629921;stroke-miterlimit:4;stroke-opacity:1;stroke-dasharray:none"
       id="path2994-5-1"
       sodipodi:cx="203.74016"
       sodipodi:cy="591.73224"
       sodipodi:rx="62.007874"
       sodipodi:ry="70.866142"
       d="m 265.74803,591.73224 a 62.007874,70.866142 0 1 1 -124.01575,0 62.007874,70.866142 0 1 1 124.01575,0 z"
       transform="matrix(0.06634337,0,0,0.0570584,249.55265,761.8708)" />
    <path
       style="fill:none;stroke:#000000;stroke-width:1px;stroke-linecap:butt;stroke-linejoin:miter;stroke-opacity:1"
       d="m 262.87401,778.0962 0,35.4331"
       id="path2996-1-1"
       inkscape:connector-curvature="0" />
    <path
       style="fill:none;stroke:#000000;stroke-width:1px;stroke-linecap:butt;stroke-linejoin:miter;stroke-opacity:1"
       d="m 245.15748,795.8127 35.43307,0"
       id="path2998-7-5"
       inkscape:connector-curvature="0" />
    <path
       sodipodi:type="arc"
       style="opacity:0.98999999;fill:#f9f9f9;fill-opacity:1;stroke:#000000;stroke-width:1.0629921;stroke-miterlimit:4;stroke-opacity:1;stroke-dasharray:none"
       id="path2994-5-2"
       sodipodi:cx="203.74016"
       sodipodi:cy="591.73224"
       sodipodi:rx="62.007874"
       sodipodi:ry="70.866142"
       d="m 265.74803,591.73224 a 62.007874,70.866142 0 1 1 -124.01575,0 62.007874,70.866142 0 1 1 124.01575,0 z"
       transform="matrix(0.06634337,0,0,0.0570584,253.30782,590.01387)" />
    <path
       style="fill:none;stroke:#000000;stroke-width:1px;stroke-linecap:butt;stroke-linejoin:miter;stroke-opacity:1"
       d="m 266.62918,606.23923 0,35.4331"
       id="path2996-1-7"
       inkscape:connector-curvature="0" />
    <path
       style="fill:none;stroke:#000000;stroke-width:1px;stroke-linecap:butt;stroke-linejoin:miter;stroke-opacity:1"
       d="m 248.91265,623.95573 35.43307,0"
       id="path2998-7-6"
       inkscape:connector-curvature="0" />
    <path
       sodipodi:type="arc"
       style="opacity:0.98999999;fill:#f9f9f9;fill-opacity:1;stroke:#000000;stroke-width:1.0629921;stroke-miterlimit:4;stroke-opacity:1;stroke-dasharray:none"
       id="path2994-5-14"
       sodipodi:cx="203.74016"
       sodipodi:cy="591.73224"
       sodipodi:rx="62.007874"
       sodipodi:ry="70.866142"
       d="m 265.74803,591.73224 a 62.007874,70.866142 0 1 1 -124.01575,0 62.007874,70.866142 0 1 1 124.01575,0 z"
       transform="matrix(0.06634337,0,0,0.0570584,433.54732,646.24651)" />
    <path
       style="fill:none;stroke:#000000;stroke-width:1px;stroke-linecap:butt;stroke-linejoin:miter;stroke-opacity:1"
       d="m 446.86868,662.47187 0,35.4331"
       id="path2996-1-2"
       inkscape:connector-curvature="0" />
    <path
       style="fill:none;stroke:#000000;stroke-width:1px;stroke-linecap:butt;stroke-linejoin:miter;stroke-opacity:1"
       d="m 429.15215,680.18837 35.43307,0"
       id="path2998-7-3"
       inkscape:connector-curvature="0" />
    <path
       sodipodi:type="arc"
       style="opacity:0.98999999;fill:#ffffff;fill-opacity:1;stroke:#000000;stroke-width:1.0629921;stroke-miterlimit:4;stroke-opacity:1;stroke-dasharray:none"
       id="path2994-0-2"
       sodipodi:cx="203.74016"
       sodipodi:cy="591.73224"
       sodipodi:rx="62.007874"
       sodipodi:ry="70.866142"
       d="m 265.74803,591.73224 a 62.007874,70.866142 0 1 1 -124.01575,0 62.007874,70.866142 0 1 1 124.01575,0 z"
       transform="matrix(0.06634337,0,0,0.0570584,306.31788,806.10883)" />
    <path
       style="fill:none;stroke:#000000;stroke-width:1px;stroke-linecap:butt;stroke-linejoin:miter;stroke-opacity:1"
       d="m 319.63925,822.33423 0,35.43301"
       id="path2996-9-2"
       inkscape:connector-curvature="0" />
    <path
       style="fill:none;stroke:#000000;stroke-width:1px;stroke-linecap:butt;stroke-linejoin:miter;stroke-opacity:1"
       d="m 301.92271,840.05074 35.43307,0"
       id="path2998-48-1"
       inkscape:connector-curvature="0" />
    <path
       sodipodi:type="arc"
       style="opacity:0.98999999;fill:#ffffff;fill-opacity:1;stroke:#000000;stroke-width:1.0629921;stroke-miterlimit:4;stroke-opacity:1;stroke-dasharray:none"
       id="path2994-0-6"
       sodipodi:cx="203.74016"
       sodipodi:cy="591.73224"
       sodipodi:rx="62.007874"
       sodipodi:ry="70.866142"
       d="m 265.74803,591.73224 a 62.007874,70.866142 0 1 1 -124.01575,0 62.007874,70.866142 0 1 1 124.01575,0 z"
       transform="matrix(0.06634337,0,0,0.0570584,235.39353,805.91848)" />
    <path
       style="fill:none;stroke:#000000;stroke-width:1px;stroke-linecap:butt;stroke-linejoin:miter;stroke-opacity:1"
       d="m 248.7149,822.14387 0,35.43297"
       id="path2996-9-8"
       inkscape:connector-curvature="0" />
    <path
       style="fill:none;stroke:#000000;stroke-width:1px;stroke-linecap:butt;stroke-linejoin:miter;stroke-opacity:1"
       d="m 230.99836,839.86034 35.43307,0"
       id="path2998-48-5"
       inkscape:connector-curvature="0" />
    <path
       sodipodi:type="arc"
       style="opacity:0.98999999;fill:#ffffff;fill-opacity:1;stroke:#000000;stroke-width:1.0629921;stroke-miterlimit:4;stroke-opacity:1;stroke-dasharray:none"
       id="path2994-0-7"
       sodipodi:cx="203.74016"
       sodipodi:cy="591.73224"
       sodipodi:rx="62.007874"
       sodipodi:ry="70.866142"
       d="m 265.74803,591.73224 a 62.007874,70.866142 0 1 1 -124.01575,0 62.007874,70.866142 0 1 1 124.01575,0 z"
       transform="matrix(0.06634337,0,0,0.0570584,448.09372,805.99645)" />
    <path
       style="fill:none;stroke:#000000;stroke-width:1px;stroke-linecap:butt;stroke-linejoin:miter;stroke-opacity:1"
       d="m 461.41509,822.22185 0,35.43309"
       id="path2996-9-6"
       inkscape:connector-curvature="0" />
    <path
       style="fill:none;stroke:#000000;stroke-width:1px;stroke-linecap:butt;stroke-linejoin:miter;stroke-opacity:1"
       d="m 443.69855,839.93844 35.43307,0"
       id="path2998-48-18"
       inkscape:connector-curvature="0" />
    <path
       sodipodi:type="arc"
       style="opacity:0.98999999;fill:#ffffff;fill-opacity:1;stroke:#000000;stroke-width:1.0629921;stroke-miterlimit:4;stroke-opacity:1;stroke-dasharray:none"
       id="path2994-0-9"
       sodipodi:cx="203.74016"
       sodipodi:cy="591.73224"
       sodipodi:rx="62.007874"
       sodipodi:ry="70.866142"
       d="m 265.74803,591.73224 a 62.007874,70.866142 0 1 1 -124.01575,0 62.007874,70.866142 0 1 1 124.01575,0 z"
       transform="matrix(0.06634337,0,0,0.0570584,518.82711,806.01449)" />
    <path
       style="fill:none;stroke:#000000;stroke-width:1px;stroke-linecap:butt;stroke-linejoin:miter;stroke-opacity:1"
       d="m 532.14848,822.23989 0,35.43295"
       id="path2996-9-27"
       inkscape:connector-curvature="0" />
    <path
       style="fill:none;stroke:#000000;stroke-width:1px;stroke-linecap:butt;stroke-linejoin:miter;stroke-opacity:1"
       d="m 514.43194,839.95634 35.43307,0"
       id="path2998-48-9"
       inkscape:connector-curvature="0" />
    <rect
       style="opacity:0.98999999;fill:#cccccc;fill-opacity:1;stroke:#000000;stroke-width:1.0629921;stroke-miterlimit:4;stroke-opacity:1;stroke-dasharray:none"
       id="rect2989-5"
       width="425.19684"
       height="283.46454"
       x="177.62709"
       y="307.11557"
       ry="6.1669516e-007" />
    <path
       sodipodi:type="arc"
       style="opacity:0.98999999;fill:#ffffff;fill-opacity:1;stroke:#000000;stroke-width:1.0629921;stroke-miterlimit:4;stroke-opacity:1;stroke-dasharray:none"
       id="path2994-4"
       sodipodi:cx="203.74016"
       sodipodi:cy="591.73224"
       sodipodi:rx="62.007874"
       sodipodi:ry="70.866142"
       d="m 265.74803,591.73224 a 62.007874,70.866142 0 1 1 -124.01575,0 62.007874,70.866142 0 1 1 124.01575,0 z"
       transform="matrix(0.06634337,0,0,0.0570584,182.31473,291.00831)" />
    <path
       style="fill:none;stroke:#000000;stroke-width:1px;stroke-linecap:butt;stroke-linejoin:miter;stroke-opacity:1"
       d="m 195.63609,307.23367 0,35.43307"
       id="path2996-3"
       inkscape:connector-curvature="0" />
    <path
       style="fill:none;stroke:#000000;stroke-width:1px;stroke-linecap:butt;stroke-linejoin:miter;stroke-opacity:1"
       d="m 177.91956,324.9502 35.43307,0"
       id="path2998-1"
       inkscape:connector-curvature="0" />
    <path
       sodipodi:type="arc"
       style="opacity:0.98999999;fill:#ffffff;fill-opacity:1;stroke:#000000;stroke-width:1.0629921;stroke-miterlimit:4;stroke-opacity:1;stroke-dasharray:none"
       id="path2994-1-2"
       sodipodi:cx="203.74016"
       sodipodi:cy="591.73224"
       sodipodi:rx="62.007874"
       sodipodi:ry="70.866142"
       d="m 265.74803,591.73224 a 62.007874,70.866142 0 1 1 -124.01575,0 62.007874,70.866142 0 1 1 124.01575,0 z"
       transform="matrix(0.06634337,0,0,0.0570584,181.8929,538.79234)" />
    <path
       style="fill:none;stroke:#000000;stroke-width:1px;stroke-linecap:butt;stroke-linejoin:miter;stroke-opacity:1"
       d="m 195.21427,555.01764 0,35.4331"
       id="path2996-7-3"
       inkscape:connector-curvature="0" />
    <path
       style="fill:none;stroke:#000000;stroke-width:1px;stroke-linecap:butt;stroke-linejoin:miter;stroke-opacity:1"
       d="m 177.49773,572.73424 35.43307,0"
       id="path2998-4-3"
       inkscape:connector-curvature="0" />
    <path
       sodipodi:type="arc"
       style="opacity:0.98999999;fill:#ffffff;fill-opacity:1;stroke:#000000;stroke-width:1.0629921;stroke-miterlimit:4;stroke-opacity:1;stroke-dasharray:none"
       id="path2994-0-4"
       sodipodi:cx="203.74016"
       sodipodi:cy="591.73224"
       sodipodi:rx="62.007874"
       sodipodi:ry="70.866142"
       d="m 265.74803,591.73224 a 62.007874,70.866142 0 1 1 -124.01575,0 62.007874,70.866142 0 1 1 124.01575,0 z"
       transform="matrix(0.06634337,0,0,0.0570584,571.98008,539.07354)" />
    <path
       style="fill:none;stroke:#000000;stroke-width:1px;stroke-linecap:butt;stroke-linejoin:miter;stroke-opacity:1"
       d="m 585.30145,555.29894 0,35.433"
       id="path2996-9-1"
       inkscape:connector-curvature="0" />
    <path
       style="fill:none;stroke:#000000;stroke-width:1px;stroke-linecap:butt;stroke-linejoin:miter;stroke-opacity:1"
       d="m 567.58491,573.01544 35.43307,0"
       id="path2998-48-13"
       inkscape:connector-curvature="0" />
    <path
       sodipodi:type="arc"
       style="opacity:0.98999999;fill:#ffffff;fill-opacity:1;stroke:#000000;stroke-width:1.0629921;stroke-miterlimit:4;stroke-opacity:1;stroke-dasharray:none"
       id="path2994-8-8"
       sodipodi:cx="203.74016"
       sodipodi:cy="591.73224"
       sodipodi:rx="62.007874"
       sodipodi:ry="70.866142"
       d="m 265.74803,591.73224 a 62.007874,70.866142 0 1 1 -124.01575,0 62.007874,70.866142 0 1 1 124.01575,0 z"
       transform="matrix(0.06634337,0,0,0.0570584,572.35972,291.10674)" />
    <path
       style="fill:none;stroke:#000000;stroke-width:1px;stroke-linecap:butt;stroke-linejoin:miter;stroke-opacity:1"
       d="m 585.68108,307.3321 0,35.43307"
       id="path2996-2-7"
       inkscape:connector-curvature="0" />
    <path
       style="fill:none;stroke:#000000;stroke-width:1px;stroke-linecap:butt;stroke-linejoin:miter;stroke-opacity:1"
       d="m 567.96454,325.04863 35.43308,0"
       id="path2998-45-4"
       inkscape:connector-curvature="0" />
    <path
       sodipodi:type="arc"
       style="opacity:0.98999999;fill:#f9f9f9;fill-opacity:1;stroke:#000000;stroke-width:1.0629921;stroke-miterlimit:4;stroke-opacity:1;stroke-dasharray:none"
       id="path2994-5-1-2"
       sodipodi:cx="203.74016"
       sodipodi:cy="591.73224"
       sodipodi:rx="62.007874"
       sodipodi:ry="70.866142"
       d="m 265.74803,591.73224 a 62.007874,70.866142 0 1 1 -124.01575,0 62.007874,70.866142 0 1 1 124.01575,0 z"
       transform="matrix(0.06634337,0,0,0.0570584,249.3226,477.23164)" />
    <path
       style="fill:none;stroke:#000000;stroke-width:1px;stroke-linecap:butt;stroke-linejoin:miter;stroke-opacity:1"
       d="m 262.64396,493.45704 0,35.4331"
       id="path2996-1-1-7"
       inkscape:connector-curvature="0" />
    <path
       style="fill:none;stroke:#000000;stroke-width:1px;stroke-linecap:butt;stroke-linejoin:miter;stroke-opacity:1"
       d="m 244.92743,511.17354 35.43307,0"
       id="path2998-7-5-7"
       inkscape:connector-curvature="0" />
    <path
       sodipodi:type="arc"
       style="opacity:0.98999999;fill:#f9f9f9;fill-opacity:1;stroke:#000000;stroke-width:1.0629921;stroke-miterlimit:4;stroke-opacity:1;stroke-dasharray:none"
       id="path2994-5-2-9"
       sodipodi:cx="203.74016"
       sodipodi:cy="591.73224"
       sodipodi:rx="62.007874"
       sodipodi:ry="70.866142"
       d="m 265.74803,591.73224 a 62.007874,70.866142 0 1 1 -124.01575,0 62.007874,70.866142 0 1 1 124.01575,0 z"
       transform="matrix(0.06634337,0,0,0.0570584,253.07777,305.37467)" />
    <path
       style="fill:none;stroke:#000000;stroke-width:1px;stroke-linecap:butt;stroke-linejoin:miter;stroke-opacity:1"
       d="m 266.39913,321.60003 0,35.4331"
       id="path2996-1-7-3"
       inkscape:connector-curvature="0" />
    <path
       style="fill:none;stroke:#000000;stroke-width:1px;stroke-linecap:butt;stroke-linejoin:miter;stroke-opacity:1"
       d="m 248.6826,339.31653 35.43307,0"
       id="path2998-7-6-1"
       inkscape:connector-curvature="0" />
    <path
       sodipodi:type="arc"
       style="opacity:0.98999999;fill:#f9f9f9;fill-opacity:1;stroke:#000000;stroke-width:1.0629921;stroke-miterlimit:4;stroke-opacity:1;stroke-dasharray:none"
       id="path2994-5-14-9"
       sodipodi:cx="203.74016"
       sodipodi:cy="591.73224"
       sodipodi:rx="62.007874"
       sodipodi:ry="70.866142"
       d="m 265.74803,591.73224 a 62.007874,70.866142 0 1 1 -124.01575,0 62.007874,70.866142 0 1 1 124.01575,0 z"
       transform="matrix(0.06634337,0,0,0.0570584,433.31727,361.60731)" />
    <path
       style="fill:none;stroke:#000000;stroke-width:1px;stroke-linecap:butt;stroke-linejoin:miter;stroke-opacity:1"
       d="m 446.63863,377.83267 0,35.43307"
       id="path2996-1-2-8"
       inkscape:connector-curvature="0" />
    <path
       style="fill:none;stroke:#000000;stroke-width:1px;stroke-linecap:butt;stroke-linejoin:miter;stroke-opacity:1"
       d="m 428.9221,395.54914 35.43307,0"
       id="path2998-7-3-6"
       inkscape:connector-curvature="0" />
    <path
       sodipodi:type="arc"
       style="opacity:0.98999999;fill:#ffffff;fill-opacity:1;stroke:#000000;stroke-width:1.0629921;stroke-miterlimit:4;stroke-opacity:1;stroke-dasharray:none"
       id="path2994-0-2-5"
       sodipodi:cx="203.74016"
       sodipodi:cy="591.73224"
       sodipodi:rx="62.007874"
       sodipodi:ry="70.866142"
       d="m 265.74803,591.73224 a 62.007874,70.866142 0 1 1 -124.01575,0 62.007874,70.866142 0 1 1 124.01575,0 z"
       transform="matrix(0.06634337,0,0,0.0570584,306.08783,521.46964)" />
    <path
       style="fill:none;stroke:#000000;stroke-width:1px;stroke-linecap:butt;stroke-linejoin:miter;stroke-opacity:1"
       d="m 319.4092,537.69504 0,35.433"
       id="path2996-9-2-0"
       inkscape:connector-curvature="0" />
    <path
       style="fill:none;stroke:#000000;stroke-width:1px;stroke-linecap:butt;stroke-linejoin:miter;stroke-opacity:1"
       d="m 301.69266,555.41154 35.43307,0"
       id="path2998-48-1-2"
       inkscape:connector-curvature="0" />
    <path
       sodipodi:type="arc"
       style="opacity:0.98999999;fill:#ffffff;fill-opacity:1;stroke:#000000;stroke-width:1.0629921;stroke-miterlimit:4;stroke-opacity:1;stroke-dasharray:none"
       id="path2994-0-6-8"
       sodipodi:cx="203.74016"
       sodipodi:cy="591.73224"
       sodipodi:rx="62.007874"
       sodipodi:ry="70.866142"
       d="m 265.74803,591.73224 a 62.007874,70.866142 0 1 1 -124.01575,0 62.007874,70.866142 0 1 1 124.01575,0 z"
       transform="matrix(0.06634337,0,0,0.0570584,235.16348,521.27924)" />
    <path
       style="fill:none;stroke:#000000;stroke-width:1px;stroke-linecap:butt;stroke-linejoin:miter;stroke-opacity:1"
       d="m 248.48485,537.50464 0,35.433"
       id="path2996-9-8-6"
       inkscape:connector-curvature="0" />
    <path
       style="fill:none;stroke:#000000;stroke-width:1px;stroke-linecap:butt;stroke-linejoin:miter;stroke-opacity:1"
       d="m 230.76831,555.22114 35.43307,0"
       id="path2998-48-5-0"
       inkscape:connector-curvature="0" />
    <path
       sodipodi:type="arc"
       style="opacity:0.98999999;fill:#ffffff;fill-opacity:1;stroke:#000000;stroke-width:1.0629921;stroke-miterlimit:4;stroke-opacity:1;stroke-dasharray:none"
       id="path2994-0-7-2"
       sodipodi:cx="203.74016"
       sodipodi:cy="591.73224"
       sodipodi:rx="62.007874"
       sodipodi:ry="70.866142"
       d="m 265.74803,591.73224 a 62.007874,70.866142 0 1 1 -124.01575,0 62.007874,70.866142 0 1 1 124.01575,0 z"
       transform="matrix(0.06634337,0,0,0.0570584,447.86367,521.35724)" />
    <path
       style="fill:none;stroke:#000000;stroke-width:1px;stroke-linecap:butt;stroke-linejoin:miter;stroke-opacity:1"
       d="m 461.18504,537.58264 0,35.4331"
       id="path2996-9-6-4"
       inkscape:connector-curvature="0" />
    <path
       style="fill:none;stroke:#000000;stroke-width:1px;stroke-linecap:butt;stroke-linejoin:miter;stroke-opacity:1"
       d="m 443.4685,555.29924 35.43307,0"
       id="path2998-48-18-8"
       inkscape:connector-curvature="0" />
    <path
       sodipodi:type="arc"
       style="opacity:0.98999999;fill:#ffffff;fill-opacity:1;stroke:#000000;stroke-width:1.0629921;stroke-miterlimit:4;stroke-opacity:1;stroke-dasharray:none"
       id="path2994-0-9-6"
       sodipodi:cx="203.74016"
       sodipodi:cy="591.73224"
       sodipodi:rx="62.007874"
       sodipodi:ry="70.866142"
       d="m 265.74803,591.73224 a 62.007874,70.866142 0 1 1 -124.01575,0 62.007874,70.866142 0 1 1 124.01575,0 z"
       transform="matrix(0.06634337,0,0,0.0570584,518.59706,521.37534)" />
    <path
       style="fill:none;stroke:#000000;stroke-width:1px;stroke-linecap:butt;stroke-linejoin:miter;stroke-opacity:1"
       d="m 531.91843,537.60074 0,35.4329"
       id="path2996-9-27-5"
       inkscape:connector-curvature="0" />
    <path
       style="fill:none;stroke:#000000;stroke-width:1px;stroke-linecap:butt;stroke-linejoin:miter;stroke-opacity:1"
       d="m 514.20189,555.31714 35.43307,0"
       id="path2998-48-9-0"
       inkscape:connector-curvature="0" />
  </g>
</svg>
