<?xml version="1.0" encoding="UTF-8" standalone="no"?>
<!-- Created with Inkscape (http://www.inkscape.org/) -->

<svg
   xmlns:dc="http://purl.org/dc/elements/1.1/"
   xmlns:cc="http://creativecommons.org/ns#"
   xmlns:rdf="http://www.w3.org/1999/02/22-rdf-syntax-ns#"
   xmlns:svg="http://www.w3.org/2000/svg"
   xmlns="http://www.w3.org/2000/svg"
   xmlns:sodipodi="http://sodipodi.sourceforge.net/DTD/sodipodi-0.dtd"
   xmlns:inkscape="http://www.inkscape.org/namespaces/inkscape"
   width="744.09448819"
   height="1052.3622047"
   id="svg2"
   version="1.1"
   inkscape:version="0.48.2 r9819"
   sodipodi:docname="Mirror_2d.svg">
  <defs
     id="defs4" />
  <sodipodi:namedview
     id="base"
     pagecolor="#ffffff"
     bordercolor="#666666"
     borderopacity="1.0"
     inkscape:pageopacity="0.0"
     inkscape:pageshadow="2"
     inkscape:zoom="1.4"
     inkscape:cx="114.44202"
     inkscape:cy="283.62302"
     inkscape:document-units="mm"
     inkscape:current-layer="layer1"
     showgrid="true"
     inkscape:snap-grids="true"
     inkscape:window-width="1920"
     inkscape:window-height="1018"
     inkscape:window-x="-8"
     inkscape:window-y="-8"
     inkscape:window-maximized="1">
    <inkscape:grid
       type="xygrid"
       id="grid2985"
       empspacing="5"
       visible="true"
       enabled="true"
       snapvisiblegridlinesonly="true"
       units="mm"
       spacingx="1mm"
       spacingy="1mm" />
  </sodipodi:namedview>
  <metadata
     id="metadata7">
    <rdf:RDF>
      <cc:Work
         rdf:about="">
        <dc:format>image/svg+xml</dc:format>
        <dc:type
           rdf:resource="http://purl.org/dc/dcmitype/StillImage" />
        <dc:title />
      </cc:Work>
    </rdf:RDF>
  </metadata>
  <g
     inkscape:label="Layer 1"
     inkscape:groupmode="layer"
     id="layer1">
    <rect
       style="fill:#cccccc;stroke:#1a1a1a"
       id="rect3006"
       width="99.212593"
       height="425.19687"
       x="361.41733"
       y="538.58264"
       ry="1.345657e-005" />
    <path
       style="fill:none;stroke:#000000;stroke-width:1px;stroke-linecap:butt;stroke-linejoin:miter;stroke-opacity:1"
       d="m 116.79508,95.669269 95.80335,0 3.5433,53.149611 -102.7559,0 z"
       id="path2989"
       inkscape:connector-curvature="0"
       sodipodi:nodetypes="ccccc" />
    <path
       style="fill:none;stroke:#000000;stroke-width:1px;stroke-linecap:butt;stroke-linejoin:miter;stroke-opacity:1"
       d="m 116.92914,148.81888 95.66929,0 3.34593,53.35621 -102.63742,0.12627 z"
       id="path2989-1"
       inkscape:connector-curvature="0"
       sodipodi:nodetypes="ccccc" />
    <path
       style="fill:none;stroke:#000000;stroke-width:1px;stroke-linecap:butt;stroke-linejoin:miter;stroke-opacity:1"
       d="m 311.93731,202.09476 -95.7577,0.10653 -3.58118,-53.38241 102.75591,0 z"
       id="path2989-7"
       inkscape:connector-curvature="0"
       sodipodi:nodetypes="ccccc" />
    <path
       style="fill:none;stroke:#000000;stroke-width:1px;stroke-linecap:butt;stroke-linejoin:miter;stroke-opacity:1"
       d="m 311.81102,148.81888 -95.66929,0 -3.65436,-53.140108 103.01522,0.594952 z"
       id="path2989-1-4"
       inkscape:connector-curvature="0"
       sodipodi:nodetypes="ccccc" />
    <path
       style="fill:none;stroke:#000000;stroke-width:1px;stroke-linecap:butt;stroke-linejoin:miter;stroke-opacity:1"
       d="m 315.27031,96.389648 95.92961,-0.505076 3.36701,52.934308 -102.75591,0 z"
       id="path2989-0"
       inkscape:connector-curvature="0"
       sodipodi:nodetypes="ccccc" />
    <path
       style="fill:none;stroke:#000000;stroke-width:1px;stroke-linecap:butt;stroke-linejoin:miter;stroke-opacity:1"
       d="m 315.35434,148.81888 95.66929,0 4.02729,53.57151 -103.11361,-0.29563 z"
       id="path2989-1-9"
       inkscape:connector-curvature="0"
       sodipodi:nodetypes="ccccc" />
    <path
       style="fill:none;stroke:#000000;stroke-width:1px;stroke-linecap:butt;stroke-linejoin:miter;stroke-opacity:1"
       d="m 116.79508,201.96848 95.80335,0 3.5433,53.14961 -102.7559,0 z"
       id="path2989-4"
       inkscape:connector-curvature="0"
       sodipodi:nodetypes="ccccc" />
    <path
       style="fill:none;stroke:#000000;stroke-width:1px;stroke-linecap:butt;stroke-linejoin:miter;stroke-opacity:1"
       d="m 311.81102,255.11809 -95.66929,0 -3.65436,-53.14011 103.01522,0.59495 z"
       id="path2989-1-4-1"
       inkscape:connector-curvature="0"
       sodipodi:nodetypes="ccccc" />
    <path
       style="fill:none;stroke:#000000;stroke-width:1px;stroke-linecap:butt;stroke-linejoin:miter;stroke-opacity:1"
       d="m 315.27031,202.68886 95.92961,-0.50508 3.36701,52.93431 -102.75591,0 z"
       id="path2989-0-2"
       inkscape:connector-curvature="0"
       sodipodi:nodetypes="ccccc" />
    <path
       sodipodi:type="arc"
       style="fill:#cccccc;stroke:#1a1a1a"
       id="path3002"
       sodipodi:cx="256.88977"
       sodipodi:cy="574.01575"
       sodipodi:rx="186.02362"
       sodipodi:ry="177.16536"
       d="m 442.91339,574.01575 a 186.02362,177.16536 0 1 1 -372.04724,0 186.02362,177.16536 0 1 1 372.04724,0 z"
       transform="matrix(0.93076981,0,0,0.97730826,-12.333589,186.17056)" />
    <path
       style="fill:none;stroke:#000000;stroke-width:1px;stroke-linecap:butt;stroke-linejoin:miter;stroke-opacity:1"
       d="m 226.77165,963.77951 0,-425.19685"
       id="path3004"
       inkscape:connector-curvature="0" />
    <path
       style="fill:none;stroke:#000000;stroke-width:1px;stroke-linecap:butt;stroke-linejoin:miter;stroke-opacity:1"
       d="m 35.433071,747.63777 460.629919,0"
       id="path3010"
       inkscape:connector-curvature="0" />
    <path
       style="fill:none;stroke:#000000;stroke-width:1px;stroke-linecap:butt;stroke-linejoin:miter;stroke-opacity:1"
       d="M 226.77165,747.63777 513.77953,963.77951"
       id="path3012"
       inkscape:connector-curvature="0"
       sodipodi:nodetypes="cc" />
    <path
       style="fill:none;stroke:#000000;stroke-width:1px;stroke-linecap:butt;stroke-linejoin:miter;stroke-opacity:1"
       d="M 226.77165,747.63777 513.77953,520.86612"
       id="path3012-1"
       inkscape:connector-curvature="0"
       sodipodi:nodetypes="cc" />
    <path
       style="fill:none;stroke:#000000;stroke-width:1px;stroke-linecap:butt;stroke-linejoin:miter;stroke-opacity:1"
       d="m 478.34646,605.90549 -70.86615,0"
       id="path3032"
       inkscape:connector-curvature="0" />
    <path
       style="fill:none;stroke:#000000;stroke-width:0.88465172px;stroke-linecap:butt;stroke-linejoin:miter;stroke-opacity:1"
       d="m 478.34646,889.37006 -63.77953,0"
       id="path3034"
       inkscape:connector-curvature="0" />
    <path
       style="fill:#ffff00;stroke:#1a1a1a;stroke-width:0.71428573"
       d="m 391.22773,870.32633 c -13.35714,-10.02901 -24.3712,-18.47394 -24.47568,-18.76649 -0.10448,-0.29257 2.16066,-4.05225 5.03365,-8.35487 17.02844,-25.50194 26.52593,-54.31651 28.77049,-87.28724 l 0.49843,-7.32143 29.1937,0 29.1937,0 0,70 0,70 -21.96429,-0.0177 -21.96428,-0.0177 -24.28572,-18.23456 0,2e-5 z"
       id="path3036"
       inkscape:connector-curvature="0" />
    <path
       style="fill:#ffff00;stroke:#1a1a1a;stroke-width:0.71428573"
       d="m 400.56677,738.77487 c -1.73575,-26.722 -7.5853,-48.47469 -19.12176,-71.10803 -4.21682,-8.27298 -10.79949,-18.89817 -15.05726,-24.30419 -2.10954,-2.67844 -2.12568,-2.76018 -0.79938,-4.0467 0.74451,-0.72218 10.35365,-8.40796 21.35365,-17.07953 l 20,-15.76648 26.25,-0.008 26.25,-0.008 0,70 0,70 -29.18824,0 -29.18823,0 -0.49878,-7.67857 0,0 z"
       id="path3038"
       inkscape:connector-curvature="0" />
  </g>
</svg>
